<svg width="12" height="17" viewBox="0 0 12 17" fill="none" xmlns="http://www.w3.org/2000/svg">
<path d="M9.75 10.684V15.8377C9.75 16.0447 9.58208 16.2127 9.375 16.2127C9.30705 16.2127 9.24037 16.1942 9.1821 16.1593L6 14.25L2.81794 16.1593C2.64034 16.2658 2.41 16.2082 2.30344 16.0306C2.26847 15.9723 2.25 15.9056 2.25 15.8377V10.684C0.878302 9.58447 0 7.8948 0 6C0 2.68629 2.68629 0 6 0C9.31373 0 12 2.68629 12 6C12 7.8948 11.1217 9.58447 9.75 10.684ZM6 10.5C8.48528 10.5 10.5 8.48527 10.5 6C10.5 3.51472 8.48528 1.5 6 1.5C3.51472 1.5 1.5 3.51472 1.5 6C1.5 8.48527 3.51472 10.5 6 10.5ZM6 9C4.34314 9 3 7.65682 3 6C3 4.34314 4.34314 3 6 3C7.65683 3 9 4.34314 9 6C9 7.65682 7.65683 9 6 9Z" fill="#2155EE"/>
</svg>
